<svg width="44" height="44" viewBox="0 0 44 44" fill="none" xmlns="http://www.w3.org/2000/svg">
<rect width="44" height="44" rx="22" fill="#004EC4"/>
<path d="M19.8167 24.7337L19.8667 29.2587L22.475 26.8587L27.0584 30.0504C27.2173 30.2035 27.4208 30.3021 27.6395 30.3321C27.8582 30.3621 28.0807 30.3218 28.275 30.2171C28.4978 30.0681 28.6534 29.8377 28.7084 29.5754L31.9 14.7254C31.9236 14.5753 31.9117 14.4218 31.8654 14.2771C31.8191 14.1325 31.7397 14.0006 31.6334 13.8921C31.44 13.7314 31.1925 13.6509 30.9417 13.6671L12.4667 20.8421C12.3667 20.9171 12.075 21.1504 12.0917 21.4337C12.1163 21.5353 12.1625 21.6303 12.2273 21.7122C12.292 21.7942 12.3737 21.8613 12.4667 21.9087C13.9466 22.5425 15.4806 23.0418 17.05 23.4004C18.4667 22.5671 20.525 21.3004 23.0084 19.7754C26.3417 17.7504 27.925 16.7171 28.0667 16.9087C28.2084 17.1004 27.45 17.7421 25.4584 19.6171C23.175 21.7421 21.2334 23.4754 19.8167 24.7337Z" fill="white"/>
</svg>
