<svg width="44" height="44" viewBox="0 0 44 44" fill="none" xmlns="http://www.w3.org/2000/svg">
<rect width="44" height="44" rx="22" fill="#004EC4"/>
<path d="M12.2584 15.8921C12.0744 17.4318 12.2144 18.993 12.6693 20.4754C13.1242 21.9579 13.8841 23.3289 14.9 24.5004C15.9813 25.6713 17.301 26.5969 18.77 27.215C20.2391 27.8331 21.8235 28.1293 23.4167 28.0837C23.4167 26.6587 23.4167 25.2254 23.3584 23.8004C24.5385 23.9181 25.6531 24.3988 26.5485 25.1764C27.444 25.954 28.0763 26.9901 28.3584 28.1421L31.825 28.2004C31.2926 26.5098 30.3869 24.9605 29.175 23.6671C28.5464 22.9974 27.8384 22.4069 27.0667 21.9087C27.8866 21.3795 28.6178 20.7242 29.2334 19.9671C30.2063 18.7683 30.8702 17.349 31.1667 15.8337L28 15.7754C27.7145 16.9524 27.1419 18.0403 26.3334 18.9421C25.5566 19.7976 24.5926 20.4621 23.5167 20.8837L23.3917 15.8837L20.3334 15.9504V24.2337C18.9836 23.5892 17.8322 22.5932 17 21.3504C15.9249 19.7439 15.4336 17.8172 15.6084 15.8921H12.2584Z" fill="white"/>
</svg>
